<?xml version="1.0" encoding="utf-8"?>
<!-- Generator: Adobe Illustrator 19.1.0, SVG Export Plug-In . SVG Version: 6.00 Build 0)  -->
<svg version="1.1" xmlns="http://www.w3.org/2000/svg" xmlns:xlink="http://www.w3.org/1999/xlink" x="0px" y="0px" width="24px"
	 height="24px" viewBox="0 0 24 24" enable-background="new 0 0 24 24" xml:space="preserve">
<g id="Bounding_Boxes">
	<g id="ui_x5F_spec_x5F_header_copy_2">
	</g>
	<path fill="none" d="M0,0h24v24H0V0z"/>
</g>
<g id="Duotone">
	<g id="ui_x5F_spec_x5F_header_copy_3">
	</g>
	<g>
		<path opacity="0.3" d="M5,19h14V5H5V19z M11,7h6v2h-6V7z M11,11h6v2h-6V11z M11,15h6v2h-6V15z M7,7h2v2H7V7z M7,11h2v2H7V11z
			 M7,15h2v2H7V15z"/>
		<rect x="11" y="7" width="6" height="2"/>
		<rect x="11" y="11" width="6" height="2"/>
		<rect x="11" y="15" width="6" height="2"/>
		<rect x="7" y="7" width="2" height="2"/>
		<rect x="7" y="11" width="2" height="2"/>
		<rect x="7" y="15" width="2" height="2"/>
		<path d="M20.1,3H3.9C3.4,3,3,3.4,3,3.9v16.2C3,20.5,3.4,21,3.9,21h16.2c0.4,0,0.9-0.5,0.9-0.9V3.9C21,3.4,20.5,3,20.1,3z M19,19H5
			V5h14V19z"/>
	</g>
</g>
</svg>
