<?xml version="1.0" encoding="utf-8"?>
<!-- Generator: Adobe Illustrator 19.1.0, SVG Export Plug-In . SVG Version: 6.00 Build 0)  -->
<svg version="1.1" xmlns="http://www.w3.org/2000/svg" xmlns:xlink="http://www.w3.org/1999/xlink" x="0px" y="0px" width="24px"
	 height="24px" viewBox="0 0 24 24" enable-background="new 0 0 24 24" xml:space="preserve">
<g id="Bounding_Boxes">
	<path fill="none" d="M0,0h24v24H0V0z"/>
</g>
<g id="Duotone_1_">
	<path d="M17.65,6.35C16.2,4.9,14.21,4,12,4c-4.42,0-7.99,3.58-7.99,8s3.57,8,7.99,8c3.73,0,6.84-2.55,7.73-6h-2.08
		c-0.82,2.33-3.04,4-5.65,4c-3.31,0-6-2.69-6-6s2.69-6,6-6c1.66,0,3.14,0.69,4.22,1.78L13,11h7V4L17.65,6.35z"/>
</g>
</svg>
