<?xml version="1.0" encoding="UTF-8" standalone="no"?>
<!-- Created with Inkscape (http://www.inkscape.org/) -->

<svg
   xmlns:dc="http://purl.org/dc/elements/1.1/"
   xmlns:cc="http://creativecommons.org/ns#"
   xmlns:rdf="http://www.w3.org/1999/02/22-rdf-syntax-ns#"
   xmlns:svg="http://www.w3.org/2000/svg"
   xmlns="http://www.w3.org/2000/svg"
   xmlns:sodipodi="http://sodipodi.sourceforge.net/DTD/sodipodi-0.dtd"
   xmlns:inkscape="http://www.inkscape.org/namespaces/inkscape"
   width="32"
   height="32"
   viewBox="0 0 32 32.000001"
   id="svg2"
   version="1.1"
   inkscape:version="0.91 r13725"
   sodipodi:docname="bookmark.svg">
  <defs
     id="defs4" />
  <sodipodi:namedview
     id="base"
     pagecolor="#ffffff"
     bordercolor="#666666"
     borderopacity="1.0"
     inkscape:pageopacity="0.0"
     inkscape:pageshadow="2"
     inkscape:zoom="12.64375"
     inkscape:cx="17.285977"
     inkscape:cy="17.170933"
     inkscape:document-units="px"
     inkscape:current-layer="layer1"
     showgrid="false"
     units="px"
     inkscape:window-width="1317"
     inkscape:window-height="744"
     inkscape:window-x="49"
     inkscape:window-y="24"
     inkscape:window-maximized="1" />
  <metadata
     id="metadata7">
    <rdf:RDF>
      <cc:Work
         rdf:about="">
        <dc:format>image/svg+xml</dc:format>
        <dc:type
           rdf:resource="http://purl.org/dc/dcmitype/StillImage" />
        <dc:title></dc:title>
      </cc:Work>
    </rdf:RDF>
  </metadata>
  <g
     inkscape:label="Layer 1"
     inkscape:groupmode="layer"
     id="layer1"
     transform="translate(0,-1020.3622)">
    <path
       style="fill:#8a2be2;stroke:none;stroke-width:1px;stroke-linecap:butt;stroke-linejoin:miter;stroke-opacity:1;fill-opacity:1"
       d="m 6.5771286,31.610573 c 0,-0.06598 0.3559071,-2.572712 0.7909046,-5.57052 0.4349975,-2.997809 0.7909046,-5.534664 0.7909046,-5.637456 0,-0.141273 -0.9788325,-1.165867 -4.0099416,-4.197413 C 1.5575751,13.613389 0.1796427,12.181485 0.25379104,12.157408 0.3168961,12.136918 2.7699972,11.759529 5.7051268,11.318765 8.6402562,10.878002 11.048413,10.510543 11.056585,10.50219 c 0.0082,-0.0084 1.05191,-2.3107895 2.319416,-5.1165235 1.267506,-2.8057341 2.329443,-5.12570006 2.359861,-5.15547996 0.03042,-0.0297799 1.173924,2.24802536 2.541126,5.06178946 1.367201,2.813764 2.510668,5.145412 2.541036,5.181439 0.03037,0.03603 2.440849,0.433519 5.356624,0.883313 2.915776,0.449794 5.377403,0.82961 5.470283,0.844035 0.172757,0.02683 0.2912,-0.1005 -6.192844,6.657573 l -1.411745,1.471409 1.032364,5.67386 c 0.567799,3.120623 1.018502,5.687722 1.001561,5.704663 -0.01694,0.01694 -2.238111,-1.18078 -4.935931,-2.661603 L 16.233207,26.35426 11.899483,28.766854 C 9.5159347,30.093781 7.3433174,31.303442 7.071444,31.45499 6.6980155,31.663147 6.5771286,31.701195 6.5771286,31.610573 Z m 6.0961634,-5.898616 3.553108,-1.977516 3.725811,1.863236 c 2.049197,1.02478 3.744988,1.844061 3.768425,1.820623 0.02344,-0.02344 -0.303995,-1.8124 -0.727626,-3.975473 -0.423631,-2.163073 -0.775926,-4.010386 -0.782878,-4.105139 -0.0094,-0.127884 0.738971,-0.939691 2.904027,-3.150264 1.604166,-1.637892 2.898312,-2.996338 2.87588,-3.01877 -0.02243,-0.02243 -1.89895,-0.264784 -4.17004,-0.538562 -2.445264,-0.294773 -4.150306,-0.533808 -4.180873,-0.586128 -0.02839,-0.04859 -0.905794,-1.725946 -1.949788,-3.7274495 -1.043994,-2.0015036 -1.915966,-3.638932 -1.937716,-3.6387298 -0.02175,2.056e-4 -0.833549,1.71793 -1.803999,3.8171729 L 12.18317,12.311763 8.0553839,13.010615 c -2.270282,0.384368 -4.1386793,0.708369 -4.1519937,0.72 -0.013314,0.01163 1.2501557,1.204967 2.8077113,2.651856 1.5575553,1.44689 2.9457574,2.740988 3.0848918,2.875775 l 0.2529727,0.245068 -0.5869828,3.954523 c -0.3228409,2.174987 -0.5879395,4.038409 -0.5891077,4.140938 -0.00157,0.137662 0.030494,0.173899 0.1225926,0.138557 0.068594,-0.02632 1.7236149,-0.937741 3.6778239,-2.025375 z"
       id="path4140"
       inkscape:connector-curvature="0"
       transform="translate(0,1020.3622)" />
  </g>
</svg>
