<?xml version="1.0" encoding="UTF-8" standalone="no"?>
<!-- Created with Inkscape (http://www.inkscape.org/) -->

<svg
   xmlns:dc="http://purl.org/dc/elements/1.1/"
   xmlns:cc="http://creativecommons.org/ns#"
   xmlns:rdf="http://www.w3.org/1999/02/22-rdf-syntax-ns#"
   xmlns:svg="http://www.w3.org/2000/svg"
   xmlns="http://www.w3.org/2000/svg"
   xmlns:sodipodi="http://sodipodi.sourceforge.net/DTD/sodipodi-0.dtd"
   xmlns:inkscape="http://www.inkscape.org/namespaces/inkscape"
   width="32"
   height="32"
   viewBox="0 0 32 32.000001"
   id="svg2"
   version="1.1"
   inkscape:version="0.91 r13725"
   sodipodi:docname="close.svg">
  <defs
     id="defs4" />
  <sodipodi:namedview
     id="base"
     pagecolor="#ffffff"
     bordercolor="#666666"
     borderopacity="1.0"
     inkscape:pageopacity="0.0"
     inkscape:pageshadow="2"
     inkscape:zoom="4.4702407"
     inkscape:cx="28.264229"
     inkscape:cy="28.646696"
     inkscape:document-units="px"
     inkscape:current-layer="layer1"
     showgrid="false"
     units="px"
     inkscape:window-width="1307"
     inkscape:window-height="744"
     inkscape:window-x="59"
     inkscape:window-y="24"
     inkscape:window-maximized="1" />
  <metadata
     id="metadata7">
    <rdf:RDF>
      <cc:Work
         rdf:about="">
        <dc:format>image/svg+xml</dc:format>
        <dc:type
           rdf:resource="http://purl.org/dc/dcmitype/StillImage" />
        <dc:title />
      </cc:Work>
    </rdf:RDF>
  </metadata>
  <g
     inkscape:label="Layer 1"
     inkscape:groupmode="layer"
     id="layer1"
     transform="translate(0,-1020.3622)">
    <path
       style="fill:#000000;fill-opacity:1;stroke:none;stroke-width:1px;stroke-linecap:butt;stroke-linejoin:miter;stroke-opacity:1"
       d="m 5.2377064,1047.7734 c -0.251836,-0.4075 1.184903,-2.4508 4.159531,-5.9157 1.5843916,-1.8456 3.1068406,-3.7771 3.3832186,-4.2923 0.476391,-0.888 0.483996,-0.9752 0.146321,-1.6778 -0.195902,-0.4075 -1.728588,-2.335 -3.4059686,-4.2833 -1.677381,-1.9483 -3.350731,-3.9797 -3.718555,-4.5143 -0.706485,-1.0269 -0.855824,-1.6744 -0.386157,-1.6744 0.463273,0 2.381371,1.3869 4.526971,3.2732 3.6827226,3.2377 5.3554516,4.5725 5.9018866,4.7097 0.827727,0.2077 1.682062,-0.3696 5.431813,-3.6707 4.492755,-3.9553 6.003174,-4.9932 6.003174,-4.1253 0,0.6491 -1.113693,2.1859 -4.241524,5.853 -1.626616,1.9071 -3.155235,3.8518 -3.396931,4.3215 l -0.439449,0.8542 0.558025,0.9354 c 0.306914,0.5146 1.48085,1.9925 2.608747,3.2844 3.916141,4.4855 5.400231,6.5202 5.027549,6.8929 -0.292457,0.2925 -2.1493,-0.9567 -4.693265,-3.1574 -5.645082,-4.8833 -6.121507,-5.1868 -7.225434,-4.603 -0.320502,0.1696 -1.856887,1.4264 -3.414189,2.793 -5.0402396,4.4232 -6.5137026,5.5018 -6.8257636,4.9969 z"
       id="path4173"
       inkscape:connector-curvature="0" />
  </g>
</svg>
