<?xml version="1.0" encoding="UTF-8" standalone="no"?>
<!-- Created with Inkscape (http://www.inkscape.org/) -->

<svg
   xmlns:dc="http://purl.org/dc/elements/1.1/"
   xmlns:cc="http://creativecommons.org/ns#"
   xmlns:rdf="http://www.w3.org/1999/02/22-rdf-syntax-ns#"
   xmlns:svg="http://www.w3.org/2000/svg"
   xmlns="http://www.w3.org/2000/svg"
   xmlns:sodipodi="http://sodipodi.sourceforge.net/DTD/sodipodi-0.dtd"
   xmlns:inkscape="http://www.inkscape.org/namespaces/inkscape"
   width="27"
   height="27"
   viewBox="0 0 7.1437498 7.1437502"
   version="1.1"
   id="svg8"
   inkscape:version="0.92.1 r15371"
   sodipodi:docname="pane_history.svg">
  <defs
     id="defs2" />
  <sodipodi:namedview
     id="base"
     pagecolor="#ffffff"
     bordercolor="#666666"
     borderopacity="1.0"
     inkscape:pageopacity="0.0"
     inkscape:pageshadow="2"
     inkscape:zoom="5.6"
     inkscape:cx="-5.6356068"
     inkscape:cy="14.656131"
     inkscape:document-units="mm"
     inkscape:current-layer="layer1"
     showgrid="false"
     units="px"
     inkscape:window-width="1366"
     inkscape:window-height="705"
     inkscape:window-x="-8"
     inkscape:window-y="-8"
     inkscape:window-maximized="1" />
  <metadata
     id="metadata5">
    <rdf:RDF>
      <cc:Work
         rdf:about="">
        <dc:format>image/svg+xml</dc:format>
        <dc:type
           rdf:resource="http://purl.org/dc/dcmitype/StillImage" />
        <dc:title></dc:title>
      </cc:Work>
    </rdf:RDF>
  </metadata>
  <g
     inkscape:label="Layer 1"
     inkscape:groupmode="layer"
     id="layer1"
     transform="translate(0,-289.85623)">
    <path
       style="opacity:0.98000004;fill:#dbdbdb;fill-opacity:1;stroke-width:0.04724703"
       d="m 0.26650166,296.567 c 0,-0.99057 0.6354984,-1.90929 1.87425124,-2.70955 0.3162268,-0.20429 0.6859428,-0.43155 0.8215907,-0.50502 l 0.2466329,-0.13359 -0.4908619,-0.27264 c -1.3012617,-0.72276 -1.92585494,-1.267 -2.23897714,-1.95095 -0.1176785,-0.25704 -0.2117936,-0.67649 -0.2123622,-0.94645 l -2.725e-4,-0.12993 H 3.5737943 6.8810859 v 0.27927 c 0,0.34344 -0.1311359,0.77985 -0.3252218,1.08231 -0.1885511,0.29383 -0.7476541,0.8322 -1.1394358,1.09718 -0.1689082,0.11424 -0.557607,0.34957 -0.8637749,0.52295 l -0.5566696,0.31525 0.6117622,0.365 c 1.5697883,0.93661 2.2733399,1.86077 2.2733399,2.98617 v 0.29718 H 3.5737943 0.26650276 Z m 2.10249254,-1.40734 c 0.564845,-0.27093 0.9086441,-0.37435 1.244445,-0.37435 0.4412797,0 1.1188784,0.27594 2.0928422,0.85229 0.3127849,0.18509 0.5802858,0.32494 0.594446,0.31078 0.052739,-0.0527 -0.1852813,-0.53577 -0.4149653,-0.84212 -0.3486764,-0.46506 -0.8502722,-0.85683 -1.8126464,-1.41574 L 3.6038743,293.418 3.2462928,293.61337 c -1.1477584,0.62707 -1.9237858,1.29378 -2.2387748,1.92341 -0.095729,0.19135 -0.17405204,0.37577 -0.17405204,0.40982 0,0.0363 0.20020204,-0.0573 0.48428204,-0.22654 0.266355,-0.15865 0.7394159,-0.41083 1.0512462,-0.5604 z m 2.4804688,-3.06933 0.4960937,-0.10837 0.3820149,-0.3819 c 0.4107255,-0.4106 0.6123158,-0.75534 0.6645495,-1.13642 l 0.029338,-0.21404 H 3.5863154 0.75117176 l 0.041268,0.22442 c 0.071348,0.38801 0.30560534,0.79307 0.66370294,1.14764 0.3525449,0.34906 0.3691872,0.3568 1.1254637,0.52301 0.55553,0.1221 1.5715672,0.0977 2.2678572,-0.0543 z"
       id="path4518"
       inkscape:connector-curvature="0" />
  </g>
</svg>
