<?xml version="1.0" encoding="UTF-8" standalone="no"?>
<!-- Created with Inkscape (http://www.inkscape.org/) -->

<svg
   xmlns:dc="http://purl.org/dc/elements/1.1/"
   xmlns:cc="http://creativecommons.org/ns#"
   xmlns:rdf="http://www.w3.org/1999/02/22-rdf-syntax-ns#"
   xmlns:svg="http://www.w3.org/2000/svg"
   xmlns="http://www.w3.org/2000/svg"
   xmlns:sodipodi="http://sodipodi.sourceforge.net/DTD/sodipodi-0.dtd"
   xmlns:inkscape="http://www.inkscape.org/namespaces/inkscape"
   width="27"
   height="27"
   viewBox="0 0 7.1437498 7.1437502"
   version="1.1"
   id="svg8"
   inkscape:version="0.92.1 r15371"
   sodipodi:docname="pane_download.svg">
  <defs
     id="defs2">
    <filter
       inkscape:collect="always"
       style="color-interpolation-filters:sRGB"
       id="filter4521"
       x="-0.036027337"
       width="1.0720547"
       y="-0.035972705"
       height="1.0719454">
      <feGaussianBlur
         inkscape:collect="always"
         stdDeviation="0.37496463"
         id="feGaussianBlur4523" />
    </filter>
  </defs>
  <sodipodi:namedview
     id="base"
     pagecolor="#ffffff"
     bordercolor="#666666"
     borderopacity="1.0"
     inkscape:pageopacity="0.0"
     inkscape:pageshadow="2"
     inkscape:zoom="11.2"
     inkscape:cx="4.2879634"
     inkscape:cy="15.785714"
     inkscape:document-units="mm"
     inkscape:current-layer="layer1"
     showgrid="false"
     units="px"
     inkscape:window-width="1366"
     inkscape:window-height="705"
     inkscape:window-x="-8"
     inkscape:window-y="-8"
     inkscape:window-maximized="1" />
  <metadata
     id="metadata5">
    <rdf:RDF>
      <cc:Work
         rdf:about="">
        <dc:format>image/svg+xml</dc:format>
        <dc:type
           rdf:resource="http://purl.org/dc/dcmitype/StillImage" />
        <dc:title></dc:title>
      </cc:Work>
    </rdf:RDF>
  </metadata>
  <g
     inkscape:label="Layer 1"
     inkscape:groupmode="layer"
     id="layer1"
     transform="translate(0,-289.85623)">
    <path
       style="fill:#dbdbdb;fill-opacity:1;stroke-width:0.04724703"
       d="m 0.33181613,296.47852 c -0.2010844,-0.20108 -0.1754633,-0.49671 0.053677,-0.61934 0.062336,-0.0334 0.5788562,-0.0496 1.49852337,-0.0471 1.2041775,0.003 1.3934083,-0.006 1.3330161,-0.0623 -0.038711,-0.0363 -0.6550658,-0.55987 -1.3696771,-1.1634 -0.7146112,-0.60354 -1.32586957,-1.13119 -1.35835187,-1.17258 -0.091005,-0.11595 -0.070115,-0.36111 0.043025,-0.50495 0.089142,-0.11332 0.1270676,-0.12696 0.2991545,-0.10756 0.17001787,0.0192 0.28734237,0.0995 0.85466847,0.58542 0.3616788,0.30977 0.8489482,0.72586 1.0828211,0.92464 l 0.425223,0.36141 0.023625,-2.24505 0.023625,-2.24505 0.1115399,-0.0903 c 0.1428586,-0.11564 0.3900083,-0.11565 0.5328724,-10e-6 l 0.1115402,0.0903 0.023622,2.2182 0.023625,2.21821 1.0759792,-0.98557 c 0.9742302,-0.89238 1.0917147,-0.98558 1.2423822,-0.98558 0.3106425,0 0.4951738,0.32479 0.3376094,0.59422 -0.031562,0.054 -0.6580121,0.64561 -1.3921129,1.31476 -0.7341007,0.66914 -1.3347284,1.22617 -1.3347284,1.23784 0,0.0117 0.5758699,0.0194 1.2797113,0.0172 1.4343435,-0.005 1.4774809,0.004 1.5345761,0.3085 0.036955,0.19698 -0.063571,0.38217 -0.2448713,0.4511 -0.07089,0.027 -1.3181679,0.0451 -3.0958435,0.0451 H 0.46992443 Z"
       id="path4509"
       inkscape:connector-curvature="0" />
    <path
       style="fill:#f0f0f0;fill-opacity:0;stroke-width:0.17857143;opacity:0.98;filter:url(#filter4521)"
       d="m 1.8829535,24.838998 c -0.7639184,-0.763919 -0.6690539,-1.880062 0.1992906,-2.344785 0.2354593,-0.126015 2.1524876,-0.18757 5.5480097,-0.178145 2.9102482,0.0081 5.1614392,-0.0544 5.1272052,-0.142307 -0.03357,-0.08619 -2.270852,-2.026052 -4.9717448,-4.310801 -2.7008929,-2.284749 -5.0513393,-4.314452 -5.2232143,-4.51045 -0.4276668,-0.487692 -0.393813,-1.415259 0.073328,-2.009133 0.3369454,-0.428356 0.4802245,-0.479861 1.1308922,-0.406521 0.6623314,0.07465 1.1895652,0.463456 4.7481005,3.501426 2.2016704,1.879595 4.0633044,3.417764 4.1369654,3.418153 0.07366,3.9e-4 0.133928,-3.739552 0.133928,-8.3109805 V 1.2337663 l 0.438312,-0.43831169 c 0.596339,-0.59633932 1.562751,-0.59633932 2.159091,0 l 0.438311,0.43831169 v 8.2224025 c 0,4.5223212 0.04669,8.2224032 0.103746,8.2224032 0.05706,0 1.905536,-1.647322 4.107724,-3.660715 3.630611,-3.319355 4.062963,-3.660714 4.636514,-3.660714 1.176515,0 1.878074,1.229227 1.279617,2.242061 -0.119288,0.201883 -2.185636,2.162312 -4.591886,4.356509 -2.40625,2.194196 -4.696429,4.300955 -5.089286,4.681684 l -0.714286,0.692235 4.858274,-0.01455 c 3.168864,-0.0095 4.983753,0.0526 5.219121,0.178562 0.816479,0.436966 0.955307,1.505743 0.295275,2.273193 L 25.495337,25.26786 13.952051,25.31633 2.4087642,25.36481 Z"
       id="path4511"
       inkscape:connector-curvature="0"
       transform="matrix(0.26458333,0,0,0.26458333,0,289.85623)" />
    <path
       style="opacity:0.98000004;fill:#f0f0f0;fill-opacity:0;stroke-width:0.17857143"
       d="m 1.8829535,24.838998 c -0.7639184,-0.763919 -0.6690539,-1.880062 0.1992906,-2.344785 0.2354593,-0.126015 2.1524876,-0.18757 5.5480097,-0.178145 2.9102482,0.0081 5.1614392,-0.0544 5.1272052,-0.142307 -0.03357,-0.08619 -2.270852,-2.026052 -4.9717448,-4.310801 -2.7008929,-2.284749 -5.0513393,-4.314452 -5.2232143,-4.51045 -0.4276668,-0.487692 -0.393813,-1.415259 0.073328,-2.009133 0.3369454,-0.428356 0.4802245,-0.479861 1.1308922,-0.406521 0.6623314,0.07465 1.1895652,0.463456 4.7481005,3.501426 2.2016704,1.879595 4.0633044,3.417764 4.1369654,3.418153 0.07366,3.9e-4 0.133928,-3.739552 0.133928,-8.3109805 V 1.2337663 l 0.438312,-0.43831169 c 0.596339,-0.59633932 1.562751,-0.59633932 2.159091,0 l 0.438311,0.43831169 v 8.2224025 c 0,4.5223212 0.04669,8.2224032 0.103746,8.2224032 0.05706,0 1.905536,-1.647322 4.107724,-3.660715 3.630611,-3.319355 4.062963,-3.660714 4.636514,-3.660714 1.176515,0 1.878074,1.229227 1.279617,2.242061 -0.119288,0.201883 -2.185636,2.162312 -4.591886,4.356509 -2.40625,2.194196 -4.696429,4.300955 -5.089286,4.681684 l -0.714286,0.692235 4.858274,-0.01455 c 3.168864,-0.0095 4.983753,0.0526 5.219121,0.178562 0.816479,0.436966 0.955307,1.505743 0.295275,2.273193 L 25.495337,25.26786 13.952051,25.31633 2.4087642,25.36481 Z"
       id="path4525"
       inkscape:connector-curvature="0"
       transform="matrix(0.26458333,0,0,0.26458333,0,289.85623)" />
    <path
       style="opacity:0.98000004;fill:#f0f0f0;fill-opacity:0;stroke-width:0.17857143"
       d="m 1.8829535,24.838998 c -0.7639184,-0.763919 -0.6690539,-1.880062 0.1992906,-2.344785 0.2354593,-0.126015 2.1524876,-0.18757 5.5480097,-0.178145 2.9102482,0.0081 5.1614392,-0.0544 5.1272052,-0.142307 -0.03357,-0.08619 -2.270852,-2.026052 -4.9717448,-4.310801 -2.7008929,-2.284749 -5.0513393,-4.314452 -5.2232143,-4.51045 -0.4276668,-0.487692 -0.393813,-1.415259 0.073328,-2.009133 0.3369454,-0.428356 0.4802245,-0.479861 1.1308922,-0.406521 0.6623314,0.07465 1.1895652,0.463456 4.7481005,3.501426 2.2016704,1.879595 4.0633044,3.417764 4.1369654,3.418153 0.07366,3.9e-4 0.133928,-3.739552 0.133928,-8.3109805 V 1.2337663 l 0.438312,-0.43831169 c 0.596339,-0.59633932 1.562751,-0.59633932 2.159091,0 l 0.438311,0.43831169 v 8.2224025 c 0,4.5223212 0.04669,8.2224032 0.103746,8.2224032 0.05706,0 1.905536,-1.647322 4.107724,-3.660715 3.630611,-3.319355 4.062963,-3.660714 4.636514,-3.660714 1.176515,0 1.878074,1.229227 1.279617,2.242061 -0.119288,0.201883 -2.185636,2.162312 -4.591886,4.356509 -2.40625,2.194196 -4.696429,4.300955 -5.089286,4.681684 l -0.714286,0.692235 4.858274,-0.01455 c 3.168864,-0.0095 4.983753,0.0526 5.219121,0.178562 0.816479,0.436966 0.955307,1.505743 0.295275,2.273193 L 25.495337,25.26786 13.952051,25.31633 2.4087642,25.36481 Z"
       id="path4527"
       inkscape:connector-curvature="0"
       transform="matrix(0.26458333,0,0,0.26458333,0,289.85623)" />
    <path
       style="opacity:0.98000004;fill:#f0f0f0;fill-opacity:0;stroke-width:0.17857143"
       d="m 1.8829535,24.838998 c -0.7639184,-0.763919 -0.6690539,-1.880062 0.1992906,-2.344785 0.2354593,-0.126015 2.1524876,-0.18757 5.5480097,-0.178145 2.9102482,0.0081 5.1614392,-0.0544 5.1272052,-0.142307 -0.03357,-0.08619 -2.270852,-2.026052 -4.9717448,-4.310801 -2.7008929,-2.284749 -5.0513393,-4.314452 -5.2232143,-4.51045 -0.4276668,-0.487692 -0.393813,-1.415259 0.073328,-2.009133 0.3369454,-0.428356 0.4802245,-0.479861 1.1308922,-0.406521 0.6623314,0.07465 1.1895652,0.463456 4.7481005,3.501426 2.2016704,1.879595 4.0633044,3.417764 4.1369654,3.418153 0.07366,3.9e-4 0.133928,-3.739552 0.133928,-8.3109805 V 1.2337663 l 0.438312,-0.43831169 c 0.596339,-0.59633932 1.562751,-0.59633932 2.159091,0 l 0.438311,0.43831169 v 8.2224025 c 0,4.5223212 0.04669,8.2224032 0.103746,8.2224032 0.05706,0 1.905536,-1.647322 4.107724,-3.660715 3.630611,-3.319355 4.062963,-3.660714 4.636514,-3.660714 1.176515,0 1.878074,1.229227 1.279617,2.242061 -0.119288,0.201883 -2.185636,2.162312 -4.591886,4.356509 -2.40625,2.194196 -4.696429,4.300955 -5.089286,4.681684 l -0.714286,0.692235 4.858274,-0.01455 c 3.168864,-0.0095 4.983753,0.0526 5.219121,0.178562 0.816479,0.436966 0.955307,1.505743 0.295275,2.273193 L 25.495337,25.26786 13.952051,25.31633 2.4087642,25.36481 Z"
       id="path4529"
       inkscape:connector-curvature="0"
       transform="matrix(0.26458333,0,0,0.26458333,0,289.85623)" />
    <path
       style="opacity:0.98000004;fill:#f0f0f0;fill-opacity:0;stroke-width:0.17857143"
       d="m 1.8829535,24.838998 c -0.7639184,-0.763919 -0.6690539,-1.880062 0.1992906,-2.344785 0.2354593,-0.126015 2.1524876,-0.18757 5.5480097,-0.178145 2.9102482,0.0081 5.1614392,-0.0544 5.1272052,-0.142307 -0.03357,-0.08619 -2.270852,-2.026052 -4.9717448,-4.310801 -2.7008929,-2.284749 -5.0513393,-4.314452 -5.2232143,-4.51045 -0.4276668,-0.487692 -0.393813,-1.415259 0.073328,-2.009133 0.3369454,-0.428356 0.4802245,-0.479861 1.1308922,-0.406521 0.6623314,0.07465 1.1895652,0.463456 4.7481005,3.501426 2.2016704,1.879595 4.0633044,3.417764 4.1369654,3.418153 0.07366,3.9e-4 0.133928,-3.739552 0.133928,-8.3109805 V 1.2337663 l 0.438312,-0.43831169 c 0.596339,-0.59633932 1.562751,-0.59633932 2.159091,0 l 0.438311,0.43831169 v 8.2224025 c 0,4.5223212 0.04669,8.2224032 0.103746,8.2224032 0.05706,0 1.905536,-1.647322 4.107724,-3.660715 3.630611,-3.319355 4.062963,-3.660714 4.636514,-3.660714 1.176515,0 1.878074,1.229227 1.279617,2.242061 -0.119288,0.201883 -2.185636,2.162312 -4.591886,4.356509 -2.40625,2.194196 -4.696429,4.300955 -5.089286,4.681684 l -0.714286,0.692235 4.858274,-0.01455 c 3.168864,-0.0095 4.983753,0.0526 5.219121,0.178562 0.816479,0.436966 0.955307,1.505743 0.295275,2.273193 L 25.495337,25.26786 13.952051,25.31633 2.4087642,25.36481 Z"
       id="path4531"
       inkscape:connector-curvature="0"
       transform="matrix(0.26458333,0,0,0.26458333,0,289.85623)" />
  </g>
</svg>
