<?xml version="1.0" encoding="UTF-8" standalone="no"?>
<svg
   xmlns:dc="http://purl.org/dc/elements/1.1/"
   xmlns:cc="http://creativecommons.org/ns#"
   xmlns:rdf="http://www.w3.org/1999/02/22-rdf-syntax-ns#"
   xmlns:svg="http://www.w3.org/2000/svg"
   xmlns="http://www.w3.org/2000/svg"
   xmlns:sodipodi="http://sodipodi.sourceforge.net/DTD/sodipodi-0.dtd"
   xmlns:inkscape="http://www.inkscape.org/namespaces/inkscape"
   fill="#000000"
   height="36"
   viewBox="0 0 24 24"
   width="36"
   version="1.1"
   id="svg6"
   sodipodi:docname="reload.svg"
   inkscape:version="0.92.1 r15371">
  <metadata
     id="metadata12">
    <rdf:RDF>
      <cc:Work
         rdf:about="">
        <dc:format>image/svg+xml</dc:format>
        <dc:type
           rdf:resource="http://purl.org/dc/dcmitype/StillImage" />
      </cc:Work>
    </rdf:RDF>
  </metadata>
  <defs
     id="defs10" />
  <sodipodi:namedview
     pagecolor="#ffffff"
     bordercolor="#666666"
     borderopacity="1"
     objecttolerance="10"
     gridtolerance="10"
     guidetolerance="10"
     inkscape:pageopacity="0"
     inkscape:pageshadow="2"
     inkscape:window-width="724"
     inkscape:window-height="480"
     id="namedview8"
     showgrid="false"
     inkscape:zoom="6.5555556"
     inkscape:cx="18"
     inkscape:cy="18"
     inkscape:window-x="0"
     inkscape:window-y="0"
     inkscape:window-maximized="0"
     inkscape:current-layer="svg6" />
  <path
     d="M 19.299416,4.6113348 C 17.425429,2.728178 14.853543,1.5593221 11.997328,1.5593221 c -5.7124263,0 -10.3263111,4.6494491 -10.3263111,10.3898309 0,5.740381 4.6138848,10.38983 10.3263111,10.38983 4.82067,0 8.84005,-3.311758 9.99029,-7.792373 h -2.688202 c -1.059772,3.026039 -3.928911,5.194916 -7.302088,5.194916 -4.2778572,0 -7.7544257,-3.493581 -7.7544257,-7.792373 0,-4.2987928 3.4765685,-7.7923733 7.7544257,-7.7923733 2.145393,0 4.058152,0.8961229 5.453948,2.3117372 l -4.161542,4.1819071 h 9.046833 V 1.5593221 Z"
     id="path2"
     inkscape:connector-curvature="0"
     style="stroke-width:1.29556286" />
  <path
     d="M0 0h24v24H0z"
     fill="none"
     id="path4" />
</svg>
