<?xml version="1.0" encoding="UTF-8" standalone="no"?>
<!-- Created with Inkscape (http://www.inkscape.org/) -->

<svg
   xmlns:dc="http://purl.org/dc/elements/1.1/"
   xmlns:cc="http://creativecommons.org/ns#"
   xmlns:rdf="http://www.w3.org/1999/02/22-rdf-syntax-ns#"
   xmlns:svg="http://www.w3.org/2000/svg"
   xmlns="http://www.w3.org/2000/svg"
   xmlns:sodipodi="http://sodipodi.sourceforge.net/DTD/sodipodi-0.dtd"
   xmlns:inkscape="http://www.inkscape.org/namespaces/inkscape"
   width="32"
   height="32"
   viewBox="0 0 32 32.000001"
   id="svg2"
   version="1.1"
   inkscape:version="0.91 r13725"
   sodipodi:docname="reload.svg">
  <defs
     id="defs4" />
  <sodipodi:namedview
     id="base"
     pagecolor="#ffffff"
     bordercolor="#666666"
     borderopacity="1.0"
     inkscape:pageopacity="0.0"
     inkscape:pageshadow="2"
     inkscape:zoom="5.6"
     inkscape:cx="5.6711945"
     inkscape:cy="20"
     inkscape:document-units="px"
     inkscape:current-layer="layer1"
     showgrid="false"
     units="px"
     inkscape:window-width="1317"
     inkscape:window-height="744"
     inkscape:window-x="49"
     inkscape:window-y="24"
     inkscape:window-maximized="1" />
  <metadata
     id="metadata7">
    <rdf:RDF>
      <cc:Work
         rdf:about="">
        <dc:format>image/svg+xml</dc:format>
        <dc:type
           rdf:resource="http://purl.org/dc/dcmitype/StillImage" />
        <dc:title />
      </cc:Work>
    </rdf:RDF>
  </metadata>
  <g
     inkscape:label="Layer 1"
     inkscape:groupmode="layer"
     id="layer1"
     transform="translate(0,-1020.3622)">
    <path
       style="fill:#000000;fill-opacity:1;stroke:none;stroke-width:1px;stroke-linecap:butt;stroke-linejoin:miter;stroke-opacity:1"
       d="m 4.7977071,1047.4319 c -3.7124932,-4.209 -4.90131717,-9.9927 -3.1251846,-15.2041 0.4789488,-1.4053 0.7154199,-1.8334 2.0431509,-3.6987 1.1417897,-1.6042 1.7262487,-2.2906 2.4395801,-2.8652 1.1600304,-0.9344 3.0741459,-2.0323 4.3711335,-2.5072 1.195215,-0.4376 4.450756,-1.0549 4.68346,-0.8881 0.153931,0.1104 0.03641,3.7794 -0.128421,4.0092 -0.03894,0.054 -0.668691,0.19 -1.399439,0.3014 -2.658358,0.4054 -4.8611467,1.7064 -6.6201498,3.91 -3.2341897,4.0517 -3.0227365,9.7338 0.5176899,13.9112 1.0754605,1.2689 3.7676339,3.017 5.3761559,3.4908 1.527294,0.4499 3.995062,0.5133 5.644069,0.1452 1.584446,-0.3538 3.754765,-1.4511 4.836143,-2.4451 1.093885,-1.0055 2.627346,-3.4435 3.021989,-4.8045 0.418174,-1.4421 0.522969,-3.0188 0.296644,-4.4631 l -0.18619,-1.1882 1.973435,-0.6503 1.973435,-0.6504 0.208862,1.4863 c 0.24288,1.7284 0.160778,3.175 -0.300694,5.2981 -0.499425,2.2977 -1.151798,3.6426 -2.818249,5.8096 -1.220123,1.5867 -1.602233,1.9727 -2.763369,2.7917 -2.558915,1.8048 -5.926262,2.9515 -8.760109,2.983 -1.3961,0.016 -3.895803,-0.401 -5.42854,-0.9045 -1.6189016,-0.5319 -4.7202818,-2.5801 -5.8554019,-3.8671 z"
       id="path4247"
       inkscape:connector-curvature="0" />
    <path
       sodipodi:type="star"
       style="opacity:1;fill:#000000;fill-opacity:1;stroke:none;stroke-opacity:1"
       id="path4249"
       sodipodi:sides="3"
       sodipodi:cx="16.607143"
       sodipodi:cy="1021.6479"
       sodipodi:r1="3.9859848"
       sodipodi:r2="7.9719696"
       sodipodi:arg1="0.27214589"
       sodipodi:arg2="1.3193434"
       inkscape:flatsided="false"
       inkscape:rounded="0"
       inkscape:randomized="0"
       d="m 20.446429,1022.7193 -1.855768,6.6499 -4.831045,-4.9321 -4.8310443,-4.9321 6.6868133,-1.7177 6.686813,-1.7178 z"
       inkscape:transform-center-x="-2.9114845"
       inkscape:transform-center-y="0.01731059"
       transform="matrix(0.6361802,0.3909166,-0.57011228,0.43621829,587.47729,572.36371)" />
  </g>
</svg>
